GIL03_xfast2_RRA_states
nRows=4
nColumns=47

# SIMM Motion File Header:
name GIL03_xfast2_RRA_states
datacolumns 47
datarows 4
otherdata 1
range 0.38917000000000024000 0.39067000000000024000
endheader
time	pelvis_tx	pelvis_ty	pelvis_tz	pelvis_tilt	pelvis_list	pelvis_rotation	hip_flexion_r	hip_adduction_r	hip_rotation_r	knee_angle_r	ankle_angle_r	subtalar_angle_r	mtp_angle_r	hip_flexion_l	hip_adduction_l	hip_rotation_l	knee_angle_l	ankle_angle_l	subtalar_angle_l	mtp_angle_l	lumbar_extension	lumbar_bending	lumbar_rotation	pelvis_tx_u	pelvis_ty_u	pelvis_tz_u	pelvis_tilt_u	pelvis_list_u	pelvis_rotation_u	hip_flexion_r_u	hip_adduction_r_u	hip_rotation_r_u	knee_angle_r_u	ankle_angle_r_u	subtalar_angle_r_u	mtp_angle_r_u	hip_flexion_l_u	hip_adduction_l_u	hip_rotation_l_u	knee_angle_l_u	ankle_angle_l_u	subtalar_angle_l_u	mtp_angle_l_u	lumbar_extension_u	lumbar_bending_u	lumbar_rotation_u
      0.38917000000000024000	      1.19262145868579110000	      0.86548043707091848000	     -0.26676462720671595000	     -0.24579740446659887000	     -0.95311293343122372000	      5.65048045435781180000	     23.29421645553492900000	     -1.49345390879271010000	     -4.97859282301348930000	    -14.07127951172676500000	     -4.74133255002427400000	      0.00000000000000283345	     -0.00000000000000508958	    -11.53240500989197800000	     -5.45433686259060920000	     -2.18087644728932070000	    -36.27490934001856700000	     -5.29178837141539750000	      0.00000000000003442029	     -0.00000000000005916179	    -10.11503136852969400000	      5.79837679644325640000	      0.24310441103582195000	      2.29243541819864750000	     -0.04237031523090122700	      0.24727479878649644000	     35.68319905413793000000	    -94.03018825307553600000	    -46.70585225964767800000	    -40.08906014681139900000	    157.22265963373340000000	     92.61579566774639700000	   -210.26350206365242000000	     86.10771558448617200000	     -0.00000000000001397459	      0.00000000000008504893	    153.27776088254367000000	   -127.28166578850221000000	    -78.38896759211485200000	   -491.77677901289826000000	   -161.06577773277007000000	      0.00000000000007420791	     -0.00000000000006169244	      2.09529975685705590000	    105.12134610688481000000	     80.29367827088329100000
      0.38967000000000024000	      1.19376721741897800000	      0.86545963078012011000	     -0.26664075637165013000	     -0.22801153333731647000	     -1.00024379544010600000	      5.62699800274150610000	     23.27414225631755300000	     -1.41470842423808650000	     -4.93280656946906680000	    -14.17652814895918900000	     -4.69782056966271710000	      0.00000000000000282696	     -0.00000000000000505367	    -11.45542776775428500000	     -5.51797576195067840000	     -2.21977433441827500000	    -36.52102000289809100000	     -5.37146805412099940000	      0.00000000000003445683	     -0.00000000000005919190	    -10.11397631943198400000	      5.85095989368193250000	      0.28358436706326567000	      2.29059792145957440000	     -0.04085335392911818700	      0.24820737521430239000	     35.45981335591480400000	    -94.49204991425800400000	    -47.22192352643894300000	    -40.21229816214096800000	    157.75663392430494000000	     90.52509377117885900000	   -210.71968668480329000000	     87.94098259542343500000	     -0.00000000000001725642	      0.00000000000007766310	    154.62948320112793000000	   -127.27156007975780000000	    -77.19770322201355800000	   -492.66057265267455000000	   -157.63971654186918000000	      0.00000000000006827764	     -0.00000000000006619806	      2.12544001834857750000	    105.20840599132232000000	     81.62783952270730500000
      0.39017000000000024000	      1.19491205493079260000	      0.86543958508672614000	     -0.26651642076520810000	     -0.21033819327891493000	     -1.04760397043325270000	      5.60326038464394130000	     23.25399984390551800000	     -1.33569966286518400000	     -4.88807156813658410000	    -14.28198780449541000000	     -4.65339297457279070000	      0.00000000000000281803	     -0.00000000000000501109	    -11.37777709231689200000	     -5.58160628554679760000	     -2.25806959439240670000	    -36.76756441230529800000	     -5.44941860948375020000	      0.00000000000003449128	     -0.00000000000005922590	    -10.11290526722568500000	      5.90358277612314010000	      0.32473411826315973000	      2.28875036592349050000	     -0.03932817577334738600	      0.24913434804655946000	     35.23281357068869800000	    -94.94783663387085000000	    -47.72687027489163800000	    -40.36141658064970300000	    158.27628243821204000000	     88.41136327438805200000	   -211.10750115053563000000	     89.76580555478598500000	     -0.00000000000001772021	      0.00000000000009874236	    155.97181371209399000000	   -127.24863681068524000000	    -75.97910300676181800000	   -493.51136586262379000000	   -154.15680525873597000000	      0.00000000000006710272	     -0.00000000000007075562	      2.15954903474590450000	    105.28091152760727000000	     82.97320476479725900000
      0.39067000000000024000	      1.19605596621531210000	      0.86542030382070112000	     -0.26639162294667923000	     -0.19277933905627825000	     -1.09519059011928710000	      5.57927297615264450000	     23.23377651384229700000	     -1.25643454910218780000	     -4.84439880244969510000	    -14.38762421384834100000	     -4.60805630487884170000	      0.00000000000000281259	     -0.00000000000000496788	    -11.29945750353935500000	     -5.64522224284137140000	     -2.29574896795690810000	    -37.01452581672471400000	     -5.52561559063728860000	      0.00000000000003452504	     -0.00000000000005926096	    -10.11181608827629600000	      5.95623836715946990000	      0.36655940332474296000	      2.28689339443593420000	     -0.03779569981121786600	      0.25005578160955816000	     35.00209886450917900000	    -95.39737247751855900000	    -48.22075475047557100000	    -40.53649137519857200000	    158.78148824119711000000	     86.27606192174674500000	   -211.42669186540638000000	     91.58138294360792000000	     -0.00000000000000446516	      0.00000000000008341982	    157.30484592396508000000	   -127.21277885825110000000	    -74.73368994405143400000	   -494.32884800142648000000	   -150.61829693196762000000	      0.00000000000006694773	     -0.00000000000007119196	      2.19775063392660110000	    105.33879020008965000000	     84.32955822527988200000
